<svg width="30" height="28" viewBox="0 0 24 22" xmlns="http://www.w3.org/2000/svg">
<path d="M20.8411 3.61012C20.3303 3.09912 19.7239 2.69376 19.0564 2.4172C18.389 2.14064 17.6736 1.99829 16.9511 1.99829C16.2286 1.99829 15.5132 2.14064 14.8457 2.4172C14.1783 2.69376 13.5719 3.09912 13.0611 3.61012L12.0011 4.67012L10.9411 3.61012C9.9094 2.57842 8.51013 1.99883 7.0511 1.99883C5.59206 1.99883 4.19279 2.57842 3.1611 3.61012C2.1294 4.64181 1.5498 6.04108 1.5498 7.50012C1.5498 8.95915 2.1294 10.3584 3.1611 11.3901L4.2211 12.4501L12.0011 20.2301L19.7811 12.4501L20.8411 11.3901C21.3521 10.8794 21.7574 10.2729 22.034 9.60547C22.3106 8.93801 22.4529 8.2226 22.4529 7.50012C22.4529 6.77763 22.3106 6.06222 22.034 5.39476C21.7574 4.7273 21.3521 4.12087 20.8411 3.61012V3.61012Z" stroke-width="2" stroke-linecap="round" stroke-linejoin="round"/>
</svg>
