<svg width="30" height="28" viewBox="0 0 30 28" fill="none" xmlns="http://www.w3.org/2000/svg">
<path d="M26.7881 4.14666C26.1071 3.46533 25.2985 2.92485 24.4086 2.5561C23.5187 2.18735 22.5648 1.99756 21.6015 1.99756C20.6381 1.99756 19.6843 2.18735 18.7943 2.5561C17.9044 2.92485 17.0958 3.46533 16.4148 4.14666L15.0015 5.55999L13.5881 4.14666C12.2125 2.77107 10.3468 1.99827 8.40146 1.99827C6.45608 1.99827 4.59038 2.77107 3.21479 4.14666C1.8392 5.52225 1.06641 7.38795 1.06641 9.33333C1.06641 11.2787 1.8392 13.1444 3.21479 14.52L4.62813 15.9333L15.0015 26.3067L25.3748 15.9333L26.7881 14.52C27.4695 13.839 28.0099 13.0304 28.3787 12.1405C28.7474 11.2505 28.9372 10.2966 28.9372 9.33333C28.9372 8.37001 28.7474 7.41613 28.3787 6.52619C28.0099 5.63624 27.4695 4.82767 26.7881 4.14666V4.14666Z" stroke-width="2" stroke-linecap="round" stroke-linejoin="round"/>
</svg>
