<svg width="24" height="24" viewBox="0 0 24 24" fill="none" xmlns="http://www.w3.org/2000/svg">
<path d="M20.8411 4.61012C20.3303 4.09912 19.7239 3.69376 19.0564 3.4172C18.389 3.14064 17.6736 2.99829 16.9511 2.99829C16.2286 2.99829 15.5132 3.14064 14.8457 3.4172C14.1783 3.69376 13.5719 4.09912 13.0611 4.61012L12.0011 5.67012L10.9411 4.61012C9.9094 3.57842 8.51013 2.99883 7.0511 2.99883C5.59206 2.99883 4.19279 3.57842 3.1611 4.61012C2.1294 5.64181 1.5498 7.04108 1.5498 8.50012C1.5498 9.95915 2.1294 11.3584 3.1611 12.3901L4.2211 13.4501L12.0011 21.2301L19.7811 13.4501L20.8411 12.3901C21.3521 11.8794 21.7574 11.2729 22.034 10.6055C22.3106 9.93801 22.4529 9.2226 22.4529 8.50012C22.4529 7.77763 22.3106 7.06222 22.034 6.39476C21.7574 5.7273 21.3521 5.12087 20.8411 4.61012V4.61012Z" stroke="#DEDBDB" stroke-width="2" stroke-linecap="round" stroke-linejoin="round"/>
</svg>
